# xmcd
#
# Track frame offsets:
#	150
#	22057
#	50913
#	85465
#	120156
#	141536
#	165046
#	210553
#
# Disc length: 3330 seconds
#
# Revision: 1
# Processed by: cddbd v1.5.2PL0 Copyright (c) Steve Scherf et al.
# Submitted via: audiograbber 1.83.01
#
DISCID=6a0d0008
DTITLE=Mark Knopfler - Live in Paris 2010
DYEAR=2010
DGENRE=Rock
TTITLE0=Border River
TTITLE1=What it Is
TTITLE2=Sailing to Philadelphia
TTITLE3=Coyote
TTITLE4=Pririe Weding
TTITLE5=Farmer's Blues
TTITLE6=Romeo and Juliet
TTITLE7=Sultans of Swing
EXTD=
EXTT0=
EXTT1=
EXTT2=
EXTT3=
EXTT4=
EXTT5=
EXTT6=
EXTT7=
PLAYORDER=
